<?xml version="1.0" encoding="UTF-8"?>
<svg id="Layer_1" xmlns="http://www.w3.org/2000/svg" viewBox="0 0 255.47 147.09">
  <defs>
    <style>
      .cls-1 {
        fill: #e78424;
      }

      .cls-1, .cls-2, .cls-3 {
        stroke-miterlimit: 10;
        stroke-width: 2px;
      }

      .cls-1, .cls-3 {
        stroke: #000001;
      }

      .cls-2 {
        fill: #442d7c;
        stroke: #452d7c;
      }

      .cls-2, .cls-3 {
        fill-rule: evenodd;
      }

      .cls-4 {
        fill: #000001;
        letter-spacing: 0em;
      }

      .cls-4, .cls-5 {
        font-family: ArialMT, Arial;
        font-size: 15px;
      }

      .cls-6 {
        fill: none;
        stroke: #323232;
        stroke-linejoin: round;
        stroke-width: 4.5px;
      }

      .cls-3 {
        fill: #ec4924;
      }

      .cls-7 {
        fill: #82d4f1;
      }

      .cls-5 {
        fill: #f1f2f2;
        letter-spacing: 0em;
      }
    </style>
  </defs>
  <rect class="cls-7" x="1.6" y="2.23" width="252" height="144" rx="18" ry="18"/>
  <g>
    <g>
      <circle class="cls-1" cx="48.36" cy="47.18" r="28.8"/>
      <g>
        <line class="cls-6" x1="34.98" y1="33.38" x2="54.94" y2="33.38"/>
        <line class="cls-6" x1="27.38" y1="42.98" x2="47.34" y2="42.98"/>
        <line class="cls-6" x1="27.38" y1="55.78" x2="47.34" y2="55.78"/>
        <line class="cls-6" x1="47.38" y1="48.58" x2="67.34" y2="48.58"/>
        <line class="cls-6" x1="45.38" y1="60.98" x2="65.34" y2="60.98"/>
        <line class="cls-6" x1="49.38" y1="39.78" x2="69.34" y2="39.78"/>
      </g>
    </g>
    <g>
      <path class="cls-2" d="M97.27,27.9c0-5.26,4.3-9.52,9.6-9.52h38.4c5.3,0,9.6,4.26,9.6,9.52v38.57c0,5.26-4.3,9.52-9.6,9.52h-38.4c-5.3,0-9.6-4.26-9.6-9.52V27.9Z"/>
      <text class="cls-5" transform="translate(97.44 51.18)"><tspan x="0" y="0">rqcfilter2</tspan></text>
    </g>
    <path class="cls-3" d="M93.45,47.52l-12.16,5.44c-.25.11-.52-.07-.52-.34v-10.88c0-.27.28-.45.52-.34l12.16,5.44c.29.13.29.55,0,.68Z"/>
    <path class="cls-3" d="M171.15,47.52l-12.16,5.44c-.25.11-.52-.07-.52-.34v-10.88c0-.27.28-.45.52-.34l12.16,5.44c.29.13.29.55,0,.68Z"/>
    <text class="cls-4" transform="translate(33.4 89.21)"><tspan x="0" y="0">Raw</tspan><tspan x="-6.63" y="18">Reads</tspan></text>
    <text class="cls-4" transform="translate(180.86 89.21)"><tspan x="0" y="0">Paired</tspan><tspan x="-11.62" y="18">non-rRNA</tspan><tspan x="-.02" y="36">Reads</tspan></text>
    <g>
      <circle class="cls-1" cx="203.77" cy="47.18" r="28.8"/>
      <g>
        <line class="cls-6" x1="190.39" y1="33.38" x2="210.35" y2="33.38"/>
        <line class="cls-6" x1="182.79" y1="42.98" x2="202.75" y2="42.98"/>
        <line class="cls-6" x1="182.79" y1="55.78" x2="202.75" y2="55.78"/>
        <line class="cls-6" x1="202.79" y1="48.58" x2="222.75" y2="48.58"/>
        <line class="cls-6" x1="200.79" y1="60.98" x2="220.75" y2="60.98"/>
        <line class="cls-6" x1="204.79" y1="39.78" x2="224.75" y2="39.78"/>
      </g>
    </g>
  </g>
</svg>